<svg xmlns="http://www.w3.org/2000/svg" viewBox="0 0 104.33 79.47"><defs><style>.cls-1{fill:#fff;}</style></defs><title>Asset 13</title><g id="Layer_2" data-name="Layer 2"><g id="Layer_1-2" data-name="Layer 1"><g id="Factory"><rect class="cls-1" x="52.83" y="68.42" width="8.44" height="10.53"/><path class="cls-1" d="M104.33,39.86,92.65,46.31H91.46V39.86l-11.6,6.46H78.58V39.86L67.06,46.31H66L60.82,41.2V39.29c0-3.44-1.57-3.5-1.57-3.5H54.12l-1-23.16H46.87L46,35.79H43.31l-1-23.16H36.06l-.83,23.16H29.56L28,0H19.48L18.2,35.79H6.59c-3.06,0-2.6,4.27-2.6,4.27V50.12l-4,.25v29.1H49.73V64.21H64.38V79.47h40V48.42h0ZM81.69,74.21h-12V64.73h12Zm0-12.1h-12V52.63h12Zm16.87,12.1h-12V64.73h12Zm0-12.1h-12V52.63h12Z"/></g></g></g></svg>